<svg width="56" height="56" viewBox="0 0 56 56" fill="none" xmlns="http://www.w3.org/2000/svg">
<path d="M12.8327 48.9998C17.343 48.9998 20.9993 45.3435 20.9993 40.8332C20.9993 36.3228 17.343 32.6665 12.8327 32.6665C8.32236 32.6665 4.66602 36.3228 4.66602 40.8332C4.66602 45.3435 8.32236 48.9998 12.8327 48.9998Z" stroke="#8F8F8F" stroke-width="2" stroke-linecap="round" stroke-linejoin="round"/>
<path d="M43.1667 48.9998C47.677 48.9998 51.3333 45.3435 51.3333 40.8332C51.3333 36.3228 47.677 32.6665 43.1667 32.6665C38.6563 32.6665 35 36.3228 35 40.8332C35 45.3435 38.6563 48.9998 43.1667 48.9998Z" stroke="#8F8F8F" stroke-width="2" stroke-linecap="round" stroke-linejoin="round"/>
<path d="M28 40.8335V32.6668L21 25.6668L30.3333 18.6668L35 25.6668H39.6667M35 14.0002C35.6188 14.0002 36.2123 13.7543 36.6499 13.3167C37.0875 12.8792 37.3333 12.2857 37.3333 11.6668C37.3333 11.048 37.0875 10.4545 36.6499 10.0169C36.2123 9.57933 35.6188 9.3335 35 9.3335C34.3812 9.3335 33.7877 9.57933 33.3501 10.0169C32.9125 10.4545 32.6667 11.048 32.6667 11.6668C32.6667 12.2857 32.9125 12.8792 33.3501 13.3167C33.7877 13.7543 34.3812 14.0002 35 14.0002V14.0002Z" stroke="#8F8F8F" stroke-width="2" stroke-linecap="round" stroke-linejoin="round"/>
</svg>
