<svg width="56" height="56" viewBox="0 0 56 56" fill="none" xmlns="http://www.w3.org/2000/svg">
<path d="M49 37.3333V18.6666C48.9992 17.8482 48.7831 17.0445 48.3736 16.336C47.964 15.6275 47.3754 15.0391 46.6667 14.6299L30.3333 5.2966C29.6239 4.88702 28.8192 4.67139 28 4.67139C27.1808 4.67139 26.3761 4.88702 25.6667 5.2966L9.33333 14.6299C8.62461 15.0391 8.03595 15.6275 7.62641 16.336C7.21687 17.0445 7.00084 17.8482 7 18.6666V37.3333C7.00084 38.1516 7.21687 38.9554 7.62641 39.6639C8.03595 40.3724 8.62461 40.9608 9.33333 41.3699L25.6667 50.7033C26.3761 51.1129 27.1808 51.3285 28 51.3285C28.8192 51.3285 29.6239 51.1129 30.3333 50.7033L46.6667 41.3699C47.3754 40.9608 47.964 40.3724 48.3736 39.6639C48.7831 38.9554 48.9992 38.1516 49 37.3333Z" stroke="#8F8F8F" stroke-width="2" stroke-linecap="round" stroke-linejoin="round"/>
<path d="M17.5 9.82324L28 15.8899L38.5 9.82324" stroke="#8F8F8F" stroke-width="2" stroke-linecap="round" stroke-linejoin="round"/>
<path d="M17.5 46.1767V34.0667L7 28" stroke="#8F8F8F" stroke-width="2" stroke-linecap="round" stroke-linejoin="round"/>
<path d="M49 28L38.5 34.0667V46.1767" stroke="#8F8F8F" stroke-width="2" stroke-linecap="round" stroke-linejoin="round"/>
<path d="M7.63086 16.2402L28.0009 28.0236L48.3709 16.2402" stroke="#8F8F8F" stroke-width="2" stroke-linecap="round" stroke-linejoin="round"/>
<path d="M28 51.52V28" stroke="#8F8F8F" stroke-width="2" stroke-linecap="round" stroke-linejoin="round"/>
</svg>
