<svg width="18" height="18" viewBox="0 0 18 18" fill="none" xmlns="http://www.w3.org/2000/svg">
<path d="M9 16.5C13.1421 16.5 16.5 13.1421 16.5 9C16.5 4.85786 13.1421 1.5 9 1.5C4.85786 1.5 1.5 4.85786 1.5 9C1.5 13.1421 4.85786 16.5 9 16.5Z" stroke="#0069B4" stroke-width="1.5" stroke-linecap="round" stroke-linejoin="round"/>
<path d="M6.81641 6.74994C6.99273 6.24869 7.34077 5.82602 7.79887 5.55679C8.25697 5.28756 8.79558 5.18914 9.31929 5.27897C9.843 5.3688 10.318 5.64108 10.6602 6.04758C11.0024 6.45409 11.1897 6.96858 11.1889 7.49994C11.1889 8.99994 8.93891 9.74994 8.93891 9.74994" stroke="#0069B4" stroke-width="1.5" stroke-linecap="round" stroke-linejoin="round"/>
<path d="M9 12.75H9.0075" stroke="#0069B4" stroke-width="1.5" stroke-linecap="round" stroke-linejoin="round"/>
</svg>
