<svg width="36" height="36" viewBox="0 0 36 36" fill="none" xmlns="http://www.w3.org/2000/svg">
<path d="M18 36C27.9411 36 36 27.9411 36 18C36 8.05887 27.9411 0 18 0C8.05887 0 0 8.05887 0 18C0 27.9411 8.05887 36 18 36Z" fill="#EAEAEA"/>
<path fill-rule="evenodd" clip-rule="evenodd" d="M8.14851 17.8102C13.3959 15.524 16.8949 14.0168 18.6457 13.2886C23.6445 11.2094 24.6832 10.8482 25.3602 10.8363C25.5091 10.8337 25.8421 10.8706 26.0577 11.0456C26.2398 11.1933 26.2899 11.3929 26.3139 11.533C26.3379 11.6731 26.3677 11.9923 26.344 12.2416C26.0731 15.0879 24.901 21.9949 24.3047 25.1827C24.0524 26.5316 23.5555 26.9839 23.0746 27.0281C22.0293 27.1243 21.2355 26.3373 20.2231 25.6737C18.6389 24.6352 17.7439 23.9887 16.2061 22.9754C14.4289 21.8042 15.581 21.1606 16.5938 20.1086C16.8588 19.8333 21.4644 15.6442 21.5536 15.2642C21.5647 15.2167 21.5751 15.0395 21.4698 14.946C21.3646 14.8524 21.2092 14.8844 21.0971 14.9098C20.9382 14.9459 18.4074 16.6187 13.5046 19.9282C12.7863 20.4215 12.1356 20.6618 11.5526 20.6492C10.9099 20.6353 9.67363 20.2858 8.75458 19.9871C7.62733 19.6207 6.73141 19.4269 6.80942 18.8046C6.85006 18.4805 7.29642 18.149 8.14851 17.8102Z" fill="#0069B4"/>
</svg>
