<svg width="36" height="36" viewBox="0 0 36 36" fill="none" xmlns="http://www.w3.org/2000/svg">
<path d="M0 17.25C0 9.1188 0 5.052 2.526 2.526C5.052 0 9.12 0 17.25 0H18.75C26.8812 0 30.948 0 33.474 2.526C36 5.052 36 9.12 36 17.25V18.75C36 26.8812 36 30.948 33.474 33.474C30.948 36 26.88 36 18.75 36H17.25C9.1188 36 5.052 36 2.526 33.474C0 30.948 0 26.88 0 18.75V17.25Z" fill="#EAEAEA"/>
<path fill-rule="evenodd" clip-rule="evenodd" d="M9.75096 11.25H7.12656C6.37656 11.25 6.22656 11.6028 6.22656 11.9928C6.22656 12.6876 7.11576 16.1364 10.3702 20.6964C12.5386 23.8116 15.595 25.5 18.3754 25.5C20.0446 25.5 20.251 25.1244 20.251 24.48V22.1256C20.251 21.3756 20.4094 21.2256 20.9374 21.2256C21.3274 21.2256 21.9934 21.42 23.5522 22.9212C25.3318 24.702 25.6246 25.5 26.6254 25.5H29.251C30.001 25.5 30.3766 25.1244 30.1594 24.384C29.923 23.6472 29.0734 22.5768 27.9454 21.3084C27.3334 20.586 26.4166 19.8072 26.1382 19.4172C25.7482 18.9168 25.8598 18.6948 26.1382 18.2496C26.1382 18.2496 29.3362 13.7448 29.6698 12.2148C29.8378 11.6592 29.6698 11.25 28.8754 11.25H26.251C25.5838 11.25 25.2754 11.6028 25.1086 11.9928C25.1086 11.9928 23.7742 15.246 21.883 17.3592C21.271 17.9712 20.9926 18.1668 20.659 18.1668C20.4922 18.1668 20.251 17.9712 20.251 17.4156V12.2148C20.251 11.5476 20.0578 11.25 19.501 11.25H15.3754C14.959 11.25 14.7082 11.5596 14.7082 11.8536C14.7082 12.486 15.6538 12.6324 15.751 14.412V18.2772C15.751 19.1256 15.5986 19.2792 15.2638 19.2792C14.3746 19.2792 12.2098 16.0104 10.9258 12.2712C10.6738 11.544 10.4218 11.25 9.75096 11.25Z" fill="#0069B4"/>
</svg>
